<svg width="38" height="13" viewBox="0 0 38 13" fill="none" xmlns="http://www.w3.org/2000/svg">
<g clip-path="url(#clip0_4605_8365)">
<path d="M15.8569 7.20801H0V12.4905H15.8569V7.20801Z" fill="#84B740"/>
<path d="M15.8569 0H0V5.2872H15.8569V0Z" fill="#259BD6"/>
<path d="M31.7136 11.417L31.643 11.4312C31.3982 11.4782 31.3087 11.4971 31.1298 11.4971C30.7155 11.4971 30.2259 11.2852 30.2259 10.2871C30.2259 9.77392 30.3106 9.09125 31.0828 9.09125H31.0875C31.2193 9.10066 31.37 9.11479 31.6524 9.19953L31.7136 9.21836V11.417ZM31.8408 6.44059L31.7136 6.46413V8.3097L31.6006 8.27675L31.5677 8.26733C31.4406 8.22967 31.1487 8.14492 30.8662 8.14492C29.3219 8.14492 28.9971 9.31253 28.9971 10.2918C28.9971 11.6336 29.7504 12.4057 31.0639 12.4057C31.6195 12.4057 32.0291 12.3492 32.4434 12.2127C32.8248 12.0903 32.9613 11.9161 32.9613 11.5442V6.24756C32.5941 6.31347 32.2127 6.37939 31.8408 6.44059Z" fill="#27292D"/>
<path d="M36.3041 11.4502L36.2382 11.469L36.0028 11.5302C35.7815 11.5867 35.5838 11.6197 35.4331 11.6197C35.0706 11.6197 34.854 11.4408 34.854 11.1348C34.854 10.937 34.9435 10.6028 35.5367 10.6028H36.3041V11.4502ZM35.7627 8.12158C35.2872 8.12158 34.7975 8.20633 34.1902 8.39465L33.7947 8.51235L33.9265 9.40689L34.3126 9.27978C34.7175 9.14795 35.2213 9.0632 35.5979 9.0632C35.7674 9.0632 36.2853 9.0632 36.2853 9.62347V9.86829H35.565C34.2514 9.86829 33.644 10.2873 33.644 11.1866C33.644 11.954 34.2043 12.4154 35.1459 12.4154C35.4378 12.4154 35.8427 12.3589 36.1911 12.2741L36.21 12.2694L36.2288 12.2741L36.3465 12.293C36.7137 12.3589 37.0951 12.4248 37.467 12.4954V9.55755C37.467 8.60652 36.8926 8.12158 35.7627 8.12158Z" fill="#27292D"/>
<path d="M27.1562 11.4502L27.0903 11.469L26.8548 11.5302C26.6336 11.5867 26.4405 11.6197 26.2852 11.6197C25.9226 11.6197 25.7061 11.4408 25.7061 11.1348C25.7061 10.937 25.7955 10.6028 26.384 10.6028H27.1515L27.1562 11.4502ZM26.6194 8.12158C26.1392 8.12158 25.6543 8.20633 25.0469 8.39465L24.6515 8.51235L24.7833 9.40689L25.1693 9.27977C25.5742 9.14795 26.078 9.0632 26.4547 9.0632C26.6242 9.0632 27.142 9.0632 27.142 9.62347V9.86829H26.4217C25.1081 9.86829 24.4961 10.2873 24.4961 11.1866C24.4961 11.954 25.0564 12.4154 26.0027 12.4154C26.2946 12.4154 26.6995 12.3589 27.0479 12.2741L27.0667 12.2694L27.0855 12.2741L27.1985 12.293C27.5705 12.3589 27.9471 12.4248 28.3191 12.5001V9.56226C28.3238 8.60181 27.7494 8.12158 26.6194 8.12158Z" fill="#27292D"/>
<path d="M22.1987 8.13093C21.6007 8.13093 21.1064 8.32867 20.9228 8.41341L20.8757 8.43696L20.8333 8.404C20.5791 8.22038 20.2071 8.12622 19.6892 8.12622C19.2326 8.12622 18.8041 8.19213 18.338 8.32867C17.9378 8.45108 17.7825 8.64411 17.7825 9.00664V12.3635H19.0348V9.26087L19.096 9.24204C19.3503 9.15729 19.5009 9.14317 19.6469 9.14317C20.0094 9.14317 20.193 9.3362 20.193 9.71285V12.3682H21.4265V9.66106C21.4265 9.50099 21.3936 9.40682 21.3889 9.38799L21.3465 9.30795L21.4312 9.27029C21.6196 9.18554 21.8267 9.14317 22.0433 9.14317C22.2928 9.14317 22.5894 9.24204 22.5894 9.71285V12.3682H23.8182V9.59044C23.8182 8.60645 23.2909 8.13093 22.1987 8.13093Z" fill="#27292D"/>
<path d="M35.3814 3.44633C35.1977 3.44633 34.8917 3.4275 34.6516 3.38042L34.581 3.36629V1.55367C34.581 1.40301 34.5527 1.30885 34.548 1.29473L34.5104 1.2194L34.5904 1.18644C34.6092 1.17702 34.6281 1.17232 34.6516 1.1629L34.6657 1.15348C34.694 1.14407 34.7222 1.13465 34.7505 1.12524C34.7646 1.12053 34.774 1.11582 34.7834 1.11582C35.0612 1.04049 35.3155 1.04991 35.4284 1.04049H35.4332C36.2006 1.04049 36.29 1.72316 36.29 2.23635C36.2853 3.23446 35.791 3.44633 35.3814 3.44633ZM35.3767 0C35.3672 0 35.3531 0 35.3437 0C34.6234 0 33.8842 0.19774 33.6205 0.583804C33.4793 0.772128 33.3993 1.00753 33.3946 1.28531V3.15443C33.3946 3.3145 33.3616 3.37571 33.3569 3.38983L33.3145 3.46987H31.0405V2.17043H31.0358C31.0076 0.800377 30.1978 0.047081 29.0254 0.047081H28.8889H27.8814C27.8343 0.381356 27.7966 0.616761 27.7496 0.951036H28.8889C29.4868 0.951036 29.8023 1.45951 29.8023 2.24106V3.54991L29.7222 3.50753C29.7081 3.50283 29.6092 3.46987 29.4539 3.46987H27.4859C27.4482 3.7194 27.4012 4.04426 27.3494 4.36912H33.3993C33.6064 4.32674 33.8465 4.28908 34.0537 4.25612C34.3597 4.40678 34.9294 4.48682 35.3202 4.48682C36.6337 4.48682 37.4859 3.6064 37.4859 2.25047C37.4812 0.908663 36.6573 0.0282486 35.3767 0Z" fill="#27292D"/>
<path d="M24.7693 4.91993H24.8258C26.1393 4.91993 26.7514 4.48679 26.7514 3.41805C26.7514 2.65063 26.1911 2.03858 25.2495 2.03858H24.0395C23.677 2.03858 23.4604 1.83142 23.4604 1.48302C23.4604 1.24761 23.5499 0.955713 24.1431 0.955713H26.7891C26.8455 0.612021 26.8738 0.395449 26.9256 0.0517578H24.1761C22.8955 0.0517578 22.2504 0.588481 22.2504 1.48302C22.2504 2.36814 22.8107 2.82954 23.7523 2.82954H24.9623C25.3248 2.82954 25.5414 3.11673 25.5414 3.41805C25.5414 3.61579 25.452 4.02539 24.8634 4.02539H24.661L20.7862 4.01598H20.08C19.4821 4.01598 19.0631 3.67699 19.0631 2.89074V2.34931C19.0631 1.5301 19.3879 1.02163 20.08 1.02163H21.2288C21.2806 0.673227 21.3135 0.451946 21.3606 0.122379H19.9294H19.7928C18.6205 0.122379 17.8107 0.908632 17.7825 2.27869V2.33048V2.89074C17.8107 4.2608 18.6205 4.91522 19.7928 4.91522H19.9294H20.9369L23.0367 4.91993H24.2891H24.7693Z" fill="#27292D"/>
</g>
<defs>
<clipPath id="clip0_4605_8365">
<rect width="37.4858" height="12.5" fill="white"/>
</clipPath>
</defs>
</svg>
